<svg width="48" height="48" viewBox="0 0 48 48" fill="none" xmlns="http://www.w3.org/2000/svg">
<path d="M24 44C35.0457 44 44 35.0457 44 24C44 12.9543 35.0457 4 24 4C12.9543 4 4 12.9543 4 24C4 30.2946 7.33333 35.8113 12.1944 39.4053L10 44L17.5 40.5C19.5278 41.5278 21.7389 42 24 42" stroke="hsl(var(--primary))" stroke-width="3" stroke-linecap="round" stroke-linejoin="round"/>
<path d="M24 14V18" stroke="hsl(var(--primary))" stroke-width="3" stroke-linecap="round" stroke-linejoin="round"/>
<path d="M24 28V32" stroke="hsl(var(--primary))" stroke-width="3" stroke-linecap="round" stroke-linejoin="round"/>
<path d="M30 18L28 20" stroke="hsl(var(--primary))" stroke-width="3" stroke-linecap="round" stroke-linejoin="round"/>
<path d="M20 26L18 28" stroke="hsl(var(--primary))" stroke-width="3" stroke-linecap="round" stroke-linejoin="round"/>
<path d="M30 28L28 26" stroke="hsl(var(--primary))" stroke-width="3" stroke-linecap="round" stroke-linejoin="round"/>
<path d="M20 20L18 18" stroke="hsl(var(--primary))" stroke-width="3" stroke-linecap="round" stroke-linejoin="round"/>
<path d="M18 23H14" stroke="hsl(var(--primary))" stroke-width="3" stroke-linecap="round" stroke-linejoin="round"/>
<path d="M34 23H30" stroke="hsl(var(--primary))" stroke-width="3" stroke-linecap="round" stroke-linejoin="round"/>
</svg>
